# xmcd
#
# Track frame offsets: 
#        150
#        13322
#        27192
#        38779
#        52839
#        66299
#        78652
#        88235
#        100929
#        119828
#        133439
#        142948
#        153850
#        163598
#        178473
#        189698
#
# Disc length: 2677 seconds
#
# Revision: 0
# Processed by: cddbd v1.5.2PL0 Copyright (c) Steve Scherf et al.
# Submitted via: ExactAudioCopyFreeDBPlugin 1.0
#
DISCID=e80a7310
DTITLE=Varios  - Life At The Frontiers Country CD1
DYEAR=2012
DGENRE=Country
TTITLE0=Johnny Cash - Wanted Man
TTITLE1=Willie Nelson - Home Is Where You're Happy
TTITLE2=Tom T. Hall - Ravishing Ruby
TTITLE3=Willie Nelson - No Tomorrow In Sight
TTITLE4=Tex Williams - Smoke, Smoke, Smoke
TTITLE5=Lee Hazlewood - These Boots Are Made For Walking
TTITLE6=Webb Pierce - In The Jailhouse Now
TTITLE7=Johnny Cash - I Walk The Line
TTITLE8=Kenny Rogers - The King Of Oak Street
TTITLE9=Pattie Page - Tennessee Waltz
TTITLE10=Willie Nelson - On Step Beyond
TTITLE11=Don Gibson - Oh Lonesome Me
TTITLE12=Dave Dudley - Six Days On The Road
TTITLE13=Kenny Rogers and The First Edition - After All (I Live My Life)
TTITLE14=Dolly Parton - It Wasn't God Who Made Honky Tonk Angels
TTITLE15=Loretta Lynn - You're Looking At Country
EXTD=
EXTT0=
EXTT1=
EXTT2=
EXTT3=
EXTT4=
EXTT5=
EXTT6=
EXTT7=
EXTT8=
EXTT9=
EXTT10=
EXTT11=
EXTT12=
EXTT13=
EXTT14=
EXTT15=
PLAYORDER=
